<?xml version="1.0" encoding="UTF-8"?>
<svg
  id="siempre-logo"
  xmlns="http://www.w3.org/2000/svg"
  viewBox="0 0 550.22 179.07"
>
  <defs>
    <clipPath id="clip">
      <path
        d="M112.28,95.93c4.16-1.75,7.98-3.38,11.82-4.94,2.73-1.12,5.56-2.21,8.4-3.08,1.05-.1,2.12,0,3.14.29-.12,1.04.08,2.29-.44,3.07-4.76,7.04-9.71,13.93-17.5,18.06-.29.15-.55.31-.85.44-4.95,2.11-8.84,4.96-10.76,10.52-1.21,3.51-3.86,6.67-6.37,9.55-17.24,20.1-39.23,35.57-63.97,45.01-6.07,2.48-12.61,3.62-19.16,3.33-12.81-.81-19.86-12.68-13.82-24.01,2.42-4.3,5.55-8.17,9.25-11.44,9.55-8.71,20.87-14.54,32.41-19.99,14.99-6.95,30.43-12.91,46.19-17.85,1.27-.38,2.42-1.09,3.33-2.07.9-.97,1.53-2.17,1.81-3.47,1.58-5.18-.93-15.66-8.33-18.52-4.15-1.65-8.48-2.82-12.9-3.48-9.74-1.36-19.6-1.87-29.28-3.45-6.94-1.28-13.78-3.06-20.46-5.32-2.98-1.06-5.75-2.65-8.18-4.68-5.84-4.56-6.42-10.34-1.62-15.94,2.29-2.59,4.84-4.94,7.61-7.01,14.66-11.18,30.85-20.2,48.06-26.8,15.95-6.39,32.77-10.37,49.89-11.78,4.47-.26,8.95-.05,13.37.64,1.86.15,3.63.9,5.04,2.12,1.41,1.23,2.4,2.87,2.81,4.7.57,1.82.55,3.77-.05,5.58-.6,1.81-1.75,3.39-3.29,4.51-3.56,2.83-6.9,5.91-10,9.23-5.01,4.72-4.49,14.46-2.37,20.62,0,4.49-1.47,5.89-4.95,5.99-1.69,0-8.92-2.86-10.26-8.52-1.73-7.27-3.04-16.6,5.02-27,.57-.61,1.21-1.15,1.9-1.62l-.11-.67c-1.48-.28-2.98-.47-4.49-.56-10.83,0-15.21,1.19-25.37,4.79-14.55,5.16-28.79,11.03-42.08,19-3.29,1.98-6.31,4.39-9.4,6.68-.98.8-1.87,1.72-2.63,2.73-3.3,4.09-2.91,6.82,2.02,8.39,6.05,1.95,12.26,3.4,18.55,4.34,8.7,1.28,17.54,1.68,26.25,2.84,4.78.56,9.48,1.65,14.02,3.23,10.47,3.87,16.37,11.61,17.42,22.78.12,1.09.2,2.17.31,3.81ZM82.36,122.06l-.56-.78c-10.15,4.23-20.32,8.39-30.43,12.7-11.05,4.83-21.12,11.65-29.71,20.12-1.36,1.36-3.75,2.92-2.58,5.02,1.17,2.1,3.81,1.19,5.62.45,7.62-3.11,15.4-6.01,22.69-9.79,12.15-6.27,23.28-14.09,32.38-24.48.91-1.04,1.75-2.16,2.62-3.23h-.04ZM543.18,121.96c-1.02-.77-2.19-1.31-3.44-1.59l-1.64-.32c-2.88-.66-5.8-1.11-8.74-1.35-13.22-.71-26.64.85-39.62,2.38h-.19c-3.44.4-6.82.84-10.3,1.27-7.11.9-14.44,1.83-21.64,2.44-3.33.05-6.64-.46-9.8-1.51l-.37-.11c-.7-.28-1.31-.74-1.77-1.34-.46-.6-.75-1.31-.84-2.06l2.1-1.03c2.04-.91,4.02-1.97,5.91-3.16,4.42-2.84,7.75-7.08,9.46-12.05,1.36-3.77,1.35-7.2-.18-9.68-.58-.97-1.38-1.79-2.32-2.41-.95-.62-2.02-1.01-3.14-1.16-1.12-.18-2.26-.22-3.4-.12-6.72.56-12.47,4.45-17.57,11.92-1.05,1.56-2.08,3.14-3.11,4.72-1.26,1.97-2.58,3.99-3.94,5.91-5.44,7.8-12.69,10.05-20.85,12-.09.01-.17.01-.26,0h-.14c-.3,0-.85-.16-1.01-.47-.07-.31-.07-.62-.02-.93.06-.31.18-.6.35-.86.97-1.96,2.12-3.82,3.44-5.56,1.23-1.65,2.5-3.28,3.76-4.85,1.52-1.93,3.1-3.92,4.59-5.98,1.55-2.12,2.86-4.41,3.92-6.83,1.77-4.09.82-7.45-2.59-9.11-1.18-.52-2.4-.97-3.63-1.36-1.09-.35-2.16-.76-3.21-1.24-3.64-1.7-6.98-.86-10.51,2.65-5.45,5.47-11.15,10.59-16.62,15.54-5.51,5.05-11.77,9.2-18.55,12.31-6.65,2.96-13.65,5.09-20.83,6.34l1.81-.88c3.61-1.74,7.35-3.53,10.9-5.64,4.05-2.41,7.85-5.23,11.32-8.42,2.55-2.4,4.63-5.26,6.14-8.43.75-1.42,1.2-2.99,1.32-4.59.12-1.6-.09-3.22-.61-4.74-.44-1.14-1.1-2.17-1.96-3.04-.86-.87-1.88-1.55-3.01-2-1.65-.73-3.43-1.13-5.24-1.19-11.25-.06-20.45,3.57-28.02,10.96.46-1.81.89-3.82-.49-5.45-2.05-2.46-4.88-.58-6.25.32l-1.65,1.08c-4.18,2.64-8.2,5.53-12.03,8.67-5.54,4.7-11.04,9.7-16.34,14.53-2.56,2.32-5.12,4.65-7.69,6.94-.46.41-.94.78-1.44,1.15.19-.95.43-1.89.72-2.81.67-1.96,1.36-3.9,2.05-5.84.81-2.28,1.66-4.64,2.43-6.99,1.3-3.75,1.19-7.84-.31-11.51-.41-1.24-1.11-2.35-2.04-3.26-.93-.91-2.07-1.58-3.31-1.95-1.07-.2-2.18-.14-3.23.18-1.05.32-2,.89-2.77,1.66-5.69,5.06-11.41,10.29-16.93,15.36l-6.26,5.81c0-.31,0-.61.09-.93.28-2.41.43-4.83.45-7.26,0-5.37-1.86-9.54-4.98-11.45-1.31-.72-2.78-1.09-4.27-1.07s-2.95.44-4.24,1.2c-2.61,1.45-5.08,3.13-7.38,5.02-.88.7-1.77,1.37-2.72,2.04-.34.25-.67.51-.99.77.63-1.72,1.26-3.44,1.87-5.16.3-.71.45-1.48.43-2.26-.01-.78-.19-1.54-.52-2.24-.24-.44-.57-.82-.97-1.12-.4-.3-.86-.51-1.35-.62-1.56-.23-3.16.03-4.57.76-.94.53-1.78,1.24-2.45,2.09l-.61.64c-14.19,14.48-30.89,26.27-49.3,34.78-1.88.83-3.82,1.52-5.79,2.07l-.56.17c-.18.04-.36.04-.53,0,.01-.46.09-.92.23-1.36.6-1.27,1.26-2.53,1.9-3.74.64-1.22,1.36-2.47,1.92-3.77.29-.67.72-1.28,1.25-1.78.54-.5,1.17-.88,1.87-1.12,6.9-2.74,14.86-6.08,22.12-11.7,3.04-2.34,5.73-5.1,7.99-8.2.81-1.02,1.38-2.2,1.68-3.46.3-1.26.32-2.57.07-3.84-.28-1.07-.79-2.06-1.5-2.91-.71-.85-1.6-1.53-2.6-1.99-1.84-.96-3.9-1.43-5.97-1.35-2.07.08-4.09.7-5.85,1.81-4.27,2.46-8.29,5.33-12,8.56-2.96,2.62-5.77,5.6-8.51,8.47-1.46,1.54-2.97,3.14-4.48,4.66l-.23.23c-.92,1.05-2.01,1.93-3.24,2.6-8.18,3.32-16.63,6.55-24.75,9.67l-3.71,1.37c-.17.07-.34.11-.52.15l.1-.15c.6-.97,1.22-1.98,1.89-2.88,2.09-2.8,4.18-5.6,6.27-8.39,3.42-4.54,6.94-9.25,10.36-13.93,1.94-2.71,3.68-5.56,5.21-8.52.35-.51.59-1.08.69-1.69.11-.61.09-1.23-.06-1.83-.21-.5-.52-.94-.92-1.31-.4-.37-.86-.65-1.38-.82-.99-.43-2.1-.57-3.16-.39-1.07.18-2.06.67-2.86,1.41-2.94,2.36-5.88,4.7-8.83,7.04-7,5.58-14.25,11.33-21.25,17.25-5.9,4.99-11.67,10.47-17.25,15.76l-4.09,3.88c-.57.48-1.03,1.08-1.33,1.76-.31.68-.45,1.42-.43,2.17.08.72.33,1.42.71,2.04.39.62.91,1.14,1.52,1.53.8.61,1.78.95,2.79.94,1.01,0,1.99-.34,2.79-.96,1.58-1.08,3.11-2.25,4.58-3.49,4.79-4.14,9.58-8.3,14.35-12.48l3.35-2.91c-1.01,1.72-1.96,3.43-2.8,5.21-.64,1.17-1.03,2.46-1.16,3.79-.13,1.33.02,2.67.42,3.94.71,1.48,1.83,2.72,3.23,3.57,1.4.85,3.02,1.27,4.66,1.22l1.36-.1c2.24-.07,4.45-.43,6.6-1.06,4.46-1.52,8.96-3.26,13.3-4.96,1.79-.7,3.58-1.37,5.37-2.07l.31-.12c0,.14,0,.27-.07.4-.23,1.36-.43,2.73-.55,3.98-.45,5.39,1.62,8.82,5.88,9.67.98.2,1.99.28,2.99.23,6.4-.3,12.37-2.93,17.93-5.58,10.66-5.13,20.44-12.31,28.88-19.15-.53.78-1.06,1.57-1.55,2.36-2.72,4.36-5.44,8.63-7.86,13.16-.57,1.22-.92,2.52-1.04,3.86-.09.56-.17,1.12-.3,1.65l-.26,1.21h1.23c.43.02.87.07,1.3.15,1.2.29,2.46.2,3.6-.25,2.34-1.22,4.44-2.83,6.22-4.77,2.01-2.17,3.92-4.54,5.77-6.83.99-1.21,1.99-2.44,2.99-3.65,4.9-6.11,10.94-11.22,17.79-15.03.35-.24.76-.38,1.18-.4.42-.02.84.07,1.21.27.48.52.82,1.16.97,1.85.16.69.14,1.41-.07,2.09-.38,2.31-.93,4.62-1.48,6.82-.22.93-.43,1.84-.64,2.73-.13.59-.28,1.16-.43,1.73-.32,1.12-.57,2.27-.74,3.43-.22,1.05-.23,2.14-.02,3.19.21,1.05.63,2.06,1.23,2.94.49.59,1.09,1.07,1.77,1.42.68.35,1.43.55,2.19.59,3.4.33,6.61-1.09,9.81-4.36.69-.71,1.36-1.43,2.07-2.17,1.05-1.12,2.12-2.27,3.23-3.31,6.81-6.49,12.81-12.13,18.36-17.24.15-.03.31-.03.46,0,.03.46-.01.92-.12,1.37-.46,1.15-.99,2.29-1.49,3.41-.86,1.77-1.6,3.59-2.21,5.46-1.11,3.35-1.84,6.81-2.19,10.32-.16,1.08-.09,2.18.21,3.23.3,1.05.83,2.02,1.54,2.85.56.56,1.23,1,1.98,1.27s1.54.37,2.33.29c2.43-.04,4.82-.65,6.98-1.79,4.47-2.5,8.69-5.42,12.61-8.71,4.08-3.59,8.03-7.6,11.86-11.46l3.06-3.09c-.6,1.12-1.18,2.25-1.78,3.39-2.21,4.26-4.53,8.68-7,12.79-3.33,5.46-6.8,11.03-10.21,16.38-2.29,3.59-4.64,7.29-6.92,10.92-1.56,2.56-2.92,5.22-4.08,7.99-.34.61-.51,1.3-.51,1.99,0,.7.18,1.38.52,1.99.31.44.72.79,1.19,1.02.48.24,1.01.35,1.54.33h.55c1.9.06,3.77-.4,5.43-1.32,1.66-.92,3.04-2.28,3.99-3.92,7.43-11.93,14.96-24.14,22.21-35.94l1.47-2.39c-.2,1.13-.24,2.28-.14,3.42.22,2.73.88,5.71,4.18,6.81,5.03,1.68,10.34,2.37,15.63,2.03,12.4-.87,24.2-6.22,36.06-16.35,3.98-3.4,7.99-6.92,11.87-10.3l8.81-7.69c1.27-1.11,2.63-2.09,4.09-2.94.2,0,.39.06.56.16-.04.4-.14.78-.31,1.15-1.06,1.59-2.25,3.1-3.54,4.51-1.16,1.23-2.36,2.44-3.51,3.62-1.76,1.76-3.57,3.59-5.26,5.55-1.58,1.76-2.75,3.86-3.41,6.14-.66,2.28-.8,4.67-.4,7.01.87,5.45,4.72,7.26,7.54,8.17,4.35,1.36,8.54.07,12.05-1.39,5.87-2.36,11.61-4.82,17.95-7.56.72-.31.82-.36,1.26.53,1.86,3.79,4.93,6.86,8.72,8.73,4.11,2.16,8.75,3.1,13.37,2.7,9.16-.88,18.11-2.01,26.62-3.38l3.1-.5c10.2-1.65,20.74-3.36,31.08-2.9,7.12.33,14.78.33,22.6-1.87,2.11-.6,4.12-1.49,5.97-2.66.54-.29,1-.71,1.34-1.23.34-.51.54-1.11.59-1.72-.02-.61-.2-1.2-.52-1.72-.32-.52-.77-.95-1.3-1.25ZM444.96,109.14l.8-1.13c1.67-2.38,3.4-4.83,5.2-7.1.38-.56.95-.95,1.61-1.09.08,0,.24,0,.46.3.62.84,0,1.99-.93,3.41l-.07.11c-1.88,2.91-4.34,4.18-7.07,5.51ZM335.65,112.62c.17-.32.37-.62.61-.89,5.76-5.29,12.75-11.06,20.97-13.68,1.43-.43,2.92-.63,4.42-.59h.95c.24.06.47.17.66.33.2.15.36.35.47.57-.12.79-.38,1.54-.79,2.22l-.11.22c-.28.49-.67.92-1.13,1.24-1.18.92-2.36,1.86-3.53,2.82-2.84,2.39-5.83,4.59-8.95,6.6-2.53,1.5-5.18,2.8-7.92,3.87-1.45.59-2.94,1.19-4.42,1.88-2.1.91-4.11,2-6.01,3.26l4.56-7.37.2-.48ZM189.26,105.26l.4-.42c4.83-4.95,9.06-8.12,13.32-9.98l.19-.08c.43-.22.89-.38,1.36-.47h.15c.11.09.19.21.23.34-.38.8-.93,1.51-1.62,2.06-4.22,2.74-8.56,5.24-12.75,7.74l-1.28.81ZM169.32,77.37l.13.04c.19.05.37.09.56.1l.14.03c.5.09,1.01.13,1.49.14,3.05.05,5.77-1.46,7.32-4.14,1.29-2.21.87-4.15-1.11-5.3-2.95-1.7-6.06-1.92-8.99-.61-2.46,1.1-4.42,3.75-4.18,5.67.36,2.92,2.82,3.58,4.63,4.07Z"
      />
    </clipPath>
  </defs>
  <path
    d="M124.38,56.2s-10.23-13.69-6.72-24.58c4.59-14.29,32.38-22.01,8.84-21.53,0,0-21.13-4.91-60.41,13.68S13.59,51.79,21.25,56.97c13.06,8.83,26.95,12.17,52.21,15.26s29.75,14.7,30.33,19.58c1.59,13.46-2.97,23.5-14.55,36.83s-33.03,29.33-62.84,39.68c-11.93,4.14-21.53-2.46-14.52-12.64s33.76-29.43,64.38-37.22c17.84-4.54,49.92-21.19,59.39-30.27"
    clip-path="url(#clip)"
    fill="none"
    stroke="#000"
    stroke-width="19"
  />
  <path
    d="M104.97,136.73l50.87-46.51s7.3-4.58,4.5-.68c-6.83,9.49-27.24,36.85-25.28,39.65,2.77,3.94,2.21,2.21,18.63-3.64,9.44-3.37,26.7-10.07,39.45-16.68,9.41-4.88,16.27-10.21,16.22-11.56-.13-3.18-1.02-9.67-8.27-6.49-4.29,1.88-10.9,9.78-14.88,12.71-17.71,13.03-6.25,11.59-16.78,28.12-3.24,5.08-1.12,10.12,21.55-.47,17.19-8.03,47.64-43.03,46.62-36.16s-30.39,46.3-22.63,40.19c6.1-4.8,18.38-24.24,30.09-30.33,7.27-3.78,9.76-8.68,12.82-4.05,1.86,2.82,1.06,5.56.46,9.67-1.28,8.72-6.2,17.4-5.31,19.84,1.91,5.28,9.47-7.5,17.07-14.15,8.53-7.46,20.45-24.15,23.63-18.93s-10.14,30.81-6.71,34,20.15-12.83,27.02-19.19,21.05-21.58,21.05-17.13-37.94,68.13-37.94,68.13c0,0-3.75,3.95,4.01-2.79,9.63-8.37,19.21-45.27,43.13-61.73,7.97-5.49,22.22-13.63,27.24-5.52,4.57,7.37-1.47,10.28-11.9,18.68s-27.82,11.11-26.64,16.91c1.41,6.94,14.39,2.31,21.46.39,14.65-3.98,24.78-9.28,31.78-16.28s16.84-20.21,22.57-19.96,11.02,1.85,8.09,6.81-19.65,20.35-19.14,25.18,2.16,8.83,12.59,5.52,33.02-14,36.96-16.67,12.22-11.83,11.83-15.27-5.47-8.02-11.71-2.29-10.72,12.68-11.62,21.55c-.59,5.82-1.49,6.46,6.66,11.8s25.19.9,32.45,0,74.69-5.61,74.69-5.61"
    clip-path="url(#clip)"
    fill="none"
    stroke="#000"
    stroke-width="18"
  />
  <circle
    id="dot"
    cx="172.18"
    cy="70.94"
    r=".71"
    clip-path="url(#clip)"
    fill="none"
    stroke="#000"
    stroke-width="18"
  />
</svg>
