<svg
  fill="none"
  height="512"
  viewBox="0 0 24 24"
  width="512"
  xmlns="http://www.w3.org/2000/svg"
  xmlns:xlink="http://www.w3.org/1999/xlink"
  id="fi_8975997"
>
  <clipPath id="clip0_1023_6280"><path d="m0 0h24v24h-24z"></path></clipPath>
  <g clip-path="url(#clip0_1023_6280)">
    <path
      clip-rule="evenodd"
      d="m7.2419 5.83485.05184.00538c.21803.02266.4353.04526.65142.04305.97192-.00993 1.90234-.39533 2.59664-1.07555.1543-.15126.292-.32087.4302-.49107l.0328-.04046c.1886-.23203.3068-.37715.3998-.48401.0788-.09054.109-.11763.1115-.1199.2816-.22972.6859-.22972.9675-.00001.0025.00222.0326.02929.1115.11991.093.10686.2112.25198.3998.48401l.0329.04047v.00002c.1381.17019.2758.33979.4301.49104.6943.68022 1.6247 1.06562 2.5966 1.07555.2161.00221.4334-.02038.6514-.04305h.0001l.0518-.00538c.2974-.03072.4836-.04975.6249-.05956.1198-.00831.1603-.00613.1637-.00592.3615.03666.6474.32255.6841.68408.0002.00327.0024.0437-.0059.16366-.0099.14131-.0289.32751-.0596.62494l-.0054.05178v.00005c-.0226.21803-.0452.43531-.043.65143.0099.97192.3953 1.90234 1.0755 2.59659.1513.1544.3209.292.491.4302h.0001l.0404.0329c.2321.1886.3772.3068.4841.3997.0902.0786.1174.1088.1198.1115.2298.2816.2298.686 0 .9676-.0024.0027-.0296.0329-.1198.1115-.1069.0929-.252.2111-.4841.3997l-.0404.0329h-.0001c-.1701.1382-.3397.2758-.491.4302-.6802.6942-1.0656 1.6247-1.0755 2.5966-.0022.2161.0204.4334.043.6514v.0001l.0054.0518c.0307.2974.0497.4836.0596.6249.0083.1201.0061.1605.0059.1637-.0367.3615-.3226.6474-.6841.684-.0032.0002-.0435.0024-.1637-.0059-.1413-.0098-.3275-.0288-.6249-.0595l-.0519-.0054c-.218-.0227-.4353-.0453-.6514-.0431-.9719.01-1.9023.3953-2.5966 1.0756-.1543.1512-.292.3208-.4301.491h-.0001l-.0328.0405c-.1886.232-.3068.3772-.3998.484-.0785.0903-.1088.1175-.1115.1199-.2816.2297-.6859.2297-.9675 0-.0027-.0024-.033-.0296-.1115-.1199-.093-.1068-.2112-.252-.3998-.484l-.0328-.0404c-.1382-.1702-.2758-.3399-.4302-.4911-.6943-.6803-1.62473-1.0656-2.59664-1.0756-.21611-.0022-.43339.0204-.65141.0431l-.05185.0054c-.29743.0307-.48363.0497-.62494.0595-.12001.0083-.16042.0061-.16367.0059-.36152-.0366-.64741-.3225-.68408-.6841-.0002-.0034-.00238-.0439.00593-.1636.00981-.1413.02884-.3275.05955-.6249l.00538-.0519c.02267-.218.04526-.4353.04306-.6514-.00994-.9719-.39533-1.9024-1.07556-2.5966-.15124-.1544-.32085-.292-.49103-.4302h-.00002l-.04047-.0329c-.23203-.1886-.37716-.3068-.48401-.3997-.09061-.0789-.11768-.1091-.11991-.1116-.22971-.2815-.22971-.6859 0-.9674.00223-.0025.02929-.0327.11991-.1116.10685-.0929.25198-.2111.48401-.3997l.04046-.0329h.00001c.1702-.1381.3398-.2758.49105-.4302.68023-.69425 1.06562-1.62467 1.07556-2.59659.0022-.21612-.02039-.43339-.04306-.65142l-.00538-.05184c-.03071-.29743-.04974-.48363-.05955-.62494-.00831-.11974-.00613-.16023-.00593-.16364.03667-.36154.32257-.64744.68411-.6841.00341-.00021.04391-.00239.16364.00592.14131.00981.32751.02884.62494.05956zm-1.47269.61862c.00001-.00007.00001-.00013.00001-.00017l-.0001.00112c.00003-.00032.00006-.00063.00009-.00095zm-2.09708 6.03023c-.00005 0-.00009-.0001-.00011-.0001l.00072.0009c-.00021-.0003-.00041-.0005-.00061-.0008zm2.78116 5.7469c-.00012 0-.00019 0-.00021 0-.00005 0 .00036 0 .00118.0001-.00032 0-.00064 0-.00097-.0001zm6.03031 2.0971c-.0001.0001-.0002.0002-.0002.0002l.0009-.0008c-.0002.0002-.0005.0004-.0007.0006zm7.8439-8.8115c.0001.0001.0001.0002.0002.0002l-.0007-.0009c.0002.0003.0003.0005.0005.0007zm-2.7811-5.74683c.0001 0 .0001 0 .0001.00001l-.0011-.00011c.0003.00003.0007.00006.001.0001zm-6.0303-2.09708c.0001-.00005.0001-.00009.0001-.00012l-.0008.00072c.0002-.0002.0005-.0004.0007-.0006zm-1.6753-.34218.00002-.00003c.36438-.44828.54658-.67242.72488-.8183.8344-.68237 2.0339-.68237 2.8683 0 .1783.14588.3605.37002.7249.8183v.00002.00002c.1715.21094.2572.31641.3488.40616.4177.40924.9774.6411 1.5622.64708.1282.00131.2634-.01265.5338-.04058.5747-.05934.862-.08901 1.0913-.06604 1.0724.10744 1.9207.95568 2.0281 2.02815.023.22928-.0067.5166-.066 1.09124-.028.2704-.0419.4056-.0406.53385.006.58473.2378 1.14449.6471 1.56218.0897.0916.1952.17732.4061.34876v.00004c.4483.36434.6725.54654.8184.72494.6823.8343.6823 2.0339 0 2.8682-.1459.1784-.3701.3606-.8184.7249v.0001c-.2109.1714-.3164.2571-.4061.3487-.4093.4177-.6411.9775-.6471 1.5622-.0013.1283.0126.2635.0406.5339.0593.5746.089.8619.066 1.0912-.1074 1.0725-.9557 1.9207-2.0281 2.0282-.2293.0229-.5166-.0067-1.0913-.0661-.2704-.0279-.4056-.0419-.5338-.0406-.5848.006-1.1445.2379-1.5622.6471-.0916.0898-.1773.1952-.3488.4061v.0001c-.3644.4483-.5466.6724-.7249.8183-.8344.6824-2.0339.6824-2.8683 0-.1783-.1459-.3605-.37-.72489-.8183l-.00005-.0001-.00009-.0001c-.17137-.2108-.25708-.3162-.34867-.406-.41768-.4092-.97745-.6411-1.56217-.6471-.12825-.0013-.26345.0127-.53386.0406-.57463.0594-.86195.089-1.09123.0661-1.07247-.1075-1.92071-.9557-2.02815-2.0282-.02297-.2293.0067-.5166.06604-1.0912.02792-.2704.04188-.4056.04057-.5339-.00597-.5847-.23783-1.1445-.64707-1.5622-.08975-.0916-.19522-.1773-.40616-.3487l-.00002-.0001h-.00002c-.44828-.3643-.67242-.5465-.8183-.7249-.68238-.8343-.68238-2.0339 0-2.8682.14588-.1784.37002-.3606.8183-.72493l.00002-.00001c.21095-.17146.31642-.25719.40618-.3488.40924-.41769.6411-.97745.64707-1.56218.00131-.12824-.01265-.26345-.04057-.53384v-.00001-.00002c-.05934-.57463-.08901-.86194-.06604-1.09122.10744-1.07247.95568-1.92071 2.02815-2.02815.22928-.02297.51659.0067 1.09121.06604h.00002.00001c.2704.02793.4056.04189.53385.04058.58473-.00598 1.14449-.23784 1.56217-.64708.09161-.08975.17734-.19523.3488-.40617zm5.6895 7.20019c.2929-.2929.2929-.76774 0-1.06063s-.7677-.29289-1.0606 0l-3.4697 3.46963-1.46967-1.4696c-.29289-.2929-.76777-.2929-1.06066 0s-.29289.7677 0 1.0606l2.00003 2c.2929.2929.7677.2929 1.0606 0z"
      fill="currentColor"
      fill-rule="evenodd"
    ></path>
  </g>
</svg>
